<?xml version="1.0" encoding="UTF-8" standalone="no"?>
<svg
   id="Estudei"
   data-name="Estudei"
   viewBox="0 0 1523.22 289.4"
   version="1.1"
   sodipodi:docname="logo.svg"
   width="1523.22"
   height="289.39999"
   xml:space="preserve"
   inkscape:version="1.3.2 (091e20e, 2023-11-25)"
   inkscape:export-filename="logo2.svg"
   inkscape:export-xdpi="96"
   inkscape:export-ydpi="96"
   xmlns:inkscape="http://www.inkscape.org/namespaces/inkscape"
   xmlns:sodipodi="http://sodipodi.sourceforge.net/DTD/sodipodi-0.dtd"
   xmlns="http://www.w3.org/2000/svg"
   xmlns:svg="http://www.w3.org/2000/svg"><sodipodi:namedview
     id="namedview7"
     pagecolor="#ffffff"
     bordercolor="#000000"
     borderopacity="0.25"
     inkscape:showpageshadow="2"
     inkscape:pageopacity="0.0"
     inkscape:pagecheckerboard="0"
     inkscape:deskcolor="#d1d1d1"
     showgrid="false"
     inkscape:zoom="0.25"
     inkscape:cx="296"
     inkscape:cy="836"
     inkscape:window-width="1920"
     inkscape:window-height="1040"
     inkscape:window-x="1366"
     inkscape:window-y="0"
     inkscape:window-maximized="1"
     inkscape:current-layer="Estudei" /><defs
     id="defs1"><style
       id="style1">
            .cls-1 {
                fill: #00CDA0;
                stroke-width: 0px;
            }

            .cls-2 {
                fill: #454A5E;
                stroke-width: 0px;
            }
        </style></defs><rect
     class="cls-1"
     x="32.330002"
     y="26.219999"
     width="263.17999"
     height="263.17999"
     rx="53.02"
     ry="53.02"
     id="rect1" /><g
     id="g3"><rect
       class="cls-2"
       x="96.300003"
       width="33.189999"
       height="52.450001"
       id="rect2"
       y="0" /><rect
       class="cls-2"
       x="198.35001"
       width="33.189999"
       height="52.450001"
       id="rect3"
       y="0" /></g><path
     d="m 280.17792,232.77668 q 4.32744,-1.4112 7.2124,-1.4112 4.61593,0 6.92389,2.82241 2.30798,2.82241 2.30798,7.29123 0,7.05604 -4.32744,11.99526 -4.03894,4.93922 -14.1363,8.93764 -17.02125,6.58563 -44.13986,10.58405 -27.1186,3.76322 -53.37172,3.76322 -36.35047,0 -60.87261,-6.58564 -24.522146,-6.82083 -36.63897,-18.58088 -11.828328,-11.76006 -11.828328,-26.57773 0,-20.22728 15.867269,-34.33935 16.155769,-14.34726 47.313309,-20.6977 -17.02125,-3.99842 -26.25311,-14.11206 -8.943375,-10.11364 -8.943375,-22.5793 0,-16.93448 12.982315,-29.87055 13.2708,-13.171253 35.48498,-20.227286 22.21418,-7.056032 48.75579,-7.056032 35.77348,0 53.66022,12.700859 17.88673,12.465659 17.88673,32.457749 0,13.87686 -6.34689,22.5793 -6.05842,8.46724 -17.59825,8.46724 -8.07789,0 -12.69382,-2.82241 -4.61593,-3.05762 -4.61593,-8.93764 0,-3.99842 1.44248,-8.70245 1.44248,-7.76162 1.44248,-10.58404 0,-8.46724 -7.78939,-13.64166 -7.78938,-5.40963 -25.96462,-5.40963 -24.52215,0 -39.23542,8.46724 -14.71329,8.46724 -14.71329,22.81451 0,11.05445 10.96284,18.34568 11.25133,7.05603 36.35046,7.76164 6.34691,0.2352 8.94337,2.35201 2.59646,2.11681 2.59646,7.05603 0,15.52327 -17.30974,15.75847 -23.94515,0.4704 -39.81242,5.40963 -15.57878,4.93922 -22.79117,12.70086 -6.9239,7.52643 -6.9239,16.22887 0,14.58247 16.73275,22.10891 16.73277,7.29123 53.08323,7.29123 23.94516,0 50.48677,-4.46883 26.83011,-4.70402 45.87083,-11.28965 z m 53.3721,49.15703 q -15.00178,0 -23.07967,-5.64482 -7.78938,-5.64483 -7.78938,-12.70087 0,-6.11522 5.48141,-10.58404 5.48142,-4.46882 16.15578,-4.46882 3.75043,0 8.65487,0.7056 5.19292,0.4704 7.78938,0.7056 -0.2885,-6.11523 -3.46195,-11.52485 -2.88496,-5.40963 -7.50089,-10.34885 -4.61594,-5.17442 -8.65487,-8.93764 -8.94337,13.87686 -17.88674,23.04971 -8.65487,9.17284 -19.04073,17.40488 -5.19292,4.23362 -10.96284,4.23362 -4.61593,0 -7.50088,-2.58722 -2.88496,-2.82241 -2.88496,-6.82083 0,-4.70402 4.03893,-8.70243 l 3.75045,-3.76323 q 15.86728,-15.99367 23.94516,-26.34252 4.90442,-6.82083 11.53983,-18.11048 6.6354,-11.52485 12.9823,-23.75531 5.48143,-10.34885 22.79118,-10.34885 8.07788,0 11.25133,1.17601 3.17346,1.176 3.17346,3.76322 0,1.41121 -1.15399,4.46882 -1.15398,3.05761 -3.17345,6.11523 -5.19293,8.46723 -5.19293,14.34726 0,3.52802 2.88496,7.76163 3.17346,4.23363 9.52037,10.58406 9.23186,9.87844 13.84779,16.93448 4.90443,6.82083 4.90443,15.05287 0,2.35201 -0.57699,6.58563 14.1363,-4.46882 33.17701,-23.75531 3.46196,-3.29282 7.7894,-3.29282 3.75044,0 5.76991,2.82241 2.30797,2.82242 2.30797,7.76164 0,8.93764 -5.48142,14.58247 -14.42479,14.58246 -27.6956,19.99209 -12.98231,5.17442 -32.31153,5.64482 -11.53983,7.99684 -27.4071,7.99684 z m 198.19663,-58.80027 q 3.75045,0 5.76991,2.82241 2.30797,2.82242 2.30797,7.76164 0,9.40804 -5.48142,14.58247 -12.40532,12.46565 -27.11861,20.46249 -14.71329,7.99684 -33.754,7.99684 -58.85315,0 -58.85315,-67.50271 0,-10.34886 0.86549,-20.9329 h -11.25133 q -8.65488,0 -11.82833,-2.58721 -2.88496,-2.58721 -2.88496,-8.23204 0,-13.17126 12.98231,-13.17126 h 16.44426 q 4.90443,-25.87212 15.00178,-47.27542 10.09735,-21.403295 24.23365,-34.104157 14.42479,-12.700858 30.86905,-12.700858 12.11682,0 19.04072,8.70244 6.9239,8.70244 6.9239,21.873695 0,36.45617 -37.50445,63.5043 h 32.31152 q 4.61594,0 6.63541,1.6464 2.01948,1.64641 2.01948,6.11524 0,16.22887 -32.60003,16.22887 h -35.19649 q -0.57699,11.76005 -0.57699,18.34568 0,24.46092 6.9239,34.33936 7.21239,9.87845 22.50267,9.87845 12.40532,0 21.92567,-6.11523 9.52037,-6.11523 22.50268,-18.34568 3.46195,-3.29282 7.78939,-3.29282 z M 481.25988,92.832041 q -4.32743,0 -9.80885,8.937639 -5.19293,8.70244 -10.09736,24.46091 -4.61593,15.52327 -7.78938,34.57456 17.02125,-11.99526 25.38763,-26.81292 8.65487,-15.05287 8.65487,-27.28333 0,-13.876859 -6.34691,-13.876859 z m 64.62297,183.927249 q -12.98231,0 -21.34869,-9.64325 -8.07788,-9.87844 -8.07788,-24.46091 0,-17.64009 2.88496,-32.22255 2.88495,-14.81766 9.52036,-31.28174 2.88496,-7.05603 8.07788,-10.11365 5.19292,-3.05762 16.44426,-3.05762 6.34691,0 8.65487,1.64641 2.59647,1.64641 2.59647,4.93922 0,1.88162 -3.17345,12.70086 -2.88496,8.70244 -4.61594,15.75847 -5.76992,24.69612 -5.76992,32.92816 0,4.93923 1.44249,7.05603 1.44247,1.88161 4.61593,1.88161 4.32744,0 10.67435,-7.05603 6.63539,-7.05603 13.84779,-21.4033 7.50089,-14.34727 14.42479,-35.28016 2.30797,-7.05603 6.9239,-10.11365 4.90443,-3.05762 14.4248,-3.05762 6.63539,0 9.23185,1.41122 2.59646,1.176 2.59646,4.70402 0,5.88002 -7.21239,32.22254 -8.07788,30.10574 -8.07788,37.16177 0,4.46883 2.30797,7.05604 2.30796,2.35201 6.05841,2.35201 5.76992,0 13.5593,-5.64483 8.07788,-5.88003 21.34869,-18.81608 3.46195,-3.29282 7.78938,-3.29282 3.75045,0 5.76992,2.82241 2.30798,2.82242 2.30798,7.76164 0,9.40804 -5.48143,14.58247 -12.40532,12.46565 -26.8301,20.46249 -14.13631,7.99684 -32.31154,7.99684 -13.8478,0 -20.4832,-8.70245 -6.34691,-8.70243 -6.34691,-24.4609 -4.90443,15.99367 -14.71328,24.69611 -9.80886,8.46724 -21.0602,8.46724 z m 267.7241,-53.62585 q 3.75044,0 5.76992,2.82241 2.30796,2.82242 2.30796,7.76164 0,9.40804 -5.48142,14.58247 -11.82833,11.76005 -25.96462,20.22729 -14.13629,8.23204 -27.9841,8.23204 -21.92567,0 -33.46551,-20.9329 -12.11682,12.46566 -21.34869,16.69927 -8.94337,4.23363 -21.06019,4.23363 -17.59825,0 -29.13808,-10.58405 -11.25133,-10.81925 -11.25133,-27.98893 0,-18.81609 9.80886,-34.80977 9.80885,-16.22887 26.8301,-26.34252 17.30976,-10.34884 38.65844,-12.23045 5.48142,-45.62901 20.7717,-77.851558 15.57877,-32.45775 40.6779,-32.45775 12.40533,0 20.48321,9.172842 8.36637,9.172843 8.36637,27.753725 0,26.342521 -15.86726,61.622691 -15.86727,35.28016 -42.40889,72.44193 1.15399,13.64166 4.90444,19.52169 4.03893,5.88003 10.09734,5.88003 7.7894,0 15.86728,-5.64483 8.07788,-5.64483 21.63718,-18.81608 3.46195,-3.29282 7.78939,-3.29282 z M 779.56444,77.543968 q -5.48142,0 -10.96284,15.993679 -5.48142,15.758473 -9.52036,41.395383 -3.75044,25.63692 -5.48142,53.62585 32.31153,-57.38906 32.31153,-92.198828 0,-8.937638 -2.01947,-13.876861 -1.73098,-4.939223 -4.32744,-4.939223 z M 696.47765,253.00398 q 5.48142,0 10.96284,-3.52802 5.48142,-3.76321 13.8478,-13.64166 -2.88496,-12.70086 -2.88496,-28.45933 0,-5.64483 0.57699,-18.34569 -15.86727,3.99842 -26.54161,17.40488 -10.38584,13.17127 -10.38584,29.40014 0,17.16968 14.42478,17.16968 z m 134.43876,23.75531 q -17.88674,0 -28.56108,-10.58405 -10.67435,-10.58405 -10.67435,-27.75373 0,-18.81608 10.67435,-35.51536 10.67434,-16.93448 28.27258,-27.04813 17.88674,-10.34885 37.79295,-10.34885 6.34691,0 8.36638,2.11681 2.30796,1.88162 3.75045,7.05603 6.05841,-0.9408 12.69381,-0.9408 14.1363,0 14.1363,8.23204 0,4.93922 -4.32744,23.52011 -6.63541,27.04812 -6.63541,37.63217 0,3.52802 2.01948,5.64482 2.30796,2.11682 5.76991,2.11682 5.48142,0 13.27081,-5.64483 7.78939,-5.88003 21.06019,-18.81608 3.46195,-3.29282 7.78939,-3.29282 3.75044,0 5.76991,2.82241 2.30798,2.82242 2.30798,7.76164 0,9.40804 -5.48143,14.58247 -11.82833,11.99525 -25.09913,20.22729 -13.27081,8.23204 -25.67613,8.23204 -9.52036,0 -17.59824,-5.17443 -7.7894,-5.40962 -11.82833,-14.58246 -15.00178,19.75689 -37.79295,19.75689 z m 10.38584,-23.75531 q 6.34691,0 12.11683,-6.11523 5.76992,-6.11523 8.36638,-16.22888 l 10.67435,-43.277 q -12.11683,0.23521 -22.50268,7.52644 -10.09735,7.05603 -16.15576,18.81609 -6.05841,11.76005 -6.05841,24.93131 0,7.29124 3.46195,10.81925 3.75043,3.52802 10.09734,3.52802 z M 970.83671,150.45631 q -12.11683,0 -18.17524,-4.46882 -6.05841,-4.70403 -6.05841,-12.93607 0,-8.23204 7.78939,-13.64166 8.07788,-5.64482 19.90621,-5.64482 10.67434,0 17.30975,4.23361 6.6354,4.23362 6.6354,11.99526 0,9.40804 -7.5009,15.05287 -7.50088,5.40963 -19.9062,5.40963 z m -27.69559,126.30298 q -9.23187,0 -12.69382,-3.05762 -3.46196,-3.05761 -3.46196,-9.64324 0,-1.88161 0.577,-6.58563 4.61593,-43.0418 15.29028,-78.32196 2.30796,-7.29123 7.50088,-10.11365 5.48142,-3.05762 17.30975,-3.05762 12.40532,0 12.40532,8.23205 0,1.176 -0.57699,4.46882 -12.9823,50.33303 -15.57878,84.43718 -0.57698,7.52644 -5.48142,10.58405 -4.90442,3.05762 -15.29026,3.05762 z M 1306.9342,173.97641 q 6.6354,0 9.5204,2.35202 3.1734,2.35201 3.1734,6.11522 0,6.11523 -4.616,10.81925 -4.3274,4.70403 -13.8477,4.93923 -23.0796,0.47039 -40.9665,-2.82242 -20.4832,35.04496 -49.6212,58.32987 -28.8496,23.04971 -57.9877,23.04971 -30.0035,0 -44.7169,-28.45933 -14.7132,-28.45933 -14.7132,-76.91076 0,-41.39539 7.2124,-74.323542 2.5965,-12.230456 7.2123,-16.464076 4.9046,-4.46882 16.4443,-4.46882 19.0408,0 19.0408,13.406462 0,1.41121 -0.577,5.174423 -8.6549,42.336193 -8.6549,76.675553 0,35.98577 7.2124,54.80185 7.5009,18.58089 22.2141,18.58089 15.0019,0 32.6001,-16.93448 17.5982,-16.93448 32.3116,-42.5714 -17.5983,-8.93763 -26.5416,-23.0497 -8.9435,-14.34726 -8.9435,-32.92815 0,-18.58089 6.9239,-31.281744 7.2125,-12.936063 19.3293,-19.286492 12.4053,-6.350429 27.4071,-6.350429 18.4637,0 29.1381,10.819249 10.9627,10.819247 10.9627,29.635336 0,27.04812 -14.4247,59.03548 15.2903,2.1168 34.908,2.1168 z m -85.1063,-46.33461 q 0,23.04971 18.1753,34.10416 11.2513,-26.34252 11.2513,-43.51221 0,-9.87844 -3.1735,-14.34726 -3.1734,-4.704023 -8.6549,-4.704023 -7.7893,0 -12.6938,7.526433 -4.9044,7.29124 -4.9044,20.9329 z m 118.5719,149.11749 q -17.0213,0 -29.1381,-6.82083 -11.8282,-7.05604 -17.8867,-18.34569 -6.0584,-11.28965 -6.0584,-24.22571 0,-17.87528 8.0779,-31.75214 8.3664,-14.11207 22.5027,-21.87371 14.1362,-7.99684 31.7344,-7.99684 17.0214,0 29.1381,7.05604 12.1169,6.82083 18.1753,18.11048 6.0584,11.28965 6.0584,24.22572 0,17.87527 -8.3664,31.98734 -8.3663,13.87686 -22.7911,21.8737 -14.1364,7.76164 -31.4461,7.76164 z m 3.1735,-25.40172 q 9.8088,0 16.4443,-8.70244 6.9239,-8.70244 6.9239,-25.40171 0,-12.93607 -5.77,-19.5217 -5.7699,-6.58562 -13.8478,-6.58562 -10.3859,0 -17.3097,8.70243 -6.6355,8.46724 -6.6355,25.40172 0,13.40646 5.77,19.75689 5.7699,6.35043 14.4248,6.35043 z m 10.3859,-100.90126 q -4.039,0 -7.2124,-2.35201 -2.885,-2.58722 -2.885,-6.11524 0,-1.6464 1.4424,-4.46882 l 26.8302,-48.92182 q 2.5964,-4.704022 6.6353,-6.820832 4.3275,-2.352011 9.5205,-2.352011 7.2123,0 12.6938,4.23362 5.7699,4.233619 5.7699,10.584046 0,6.585627 -6.347,13.171267 l -37.2159,39.04337 q -3.7504,3.99843 -9.2318,3.99843 z m 120.5912,131.4774 q -15.0018,0 -23.0796,-5.64482 -7.7894,-5.64483 -7.7894,-12.70087 0,-6.11522 5.4814,-10.58404 5.4814,-4.46882 16.1558,-4.46882 3.7504,0 8.6548,0.7056 5.1929,0.4704 7.7894,0.7056 -0.2885,-6.11523 -3.4619,-11.52485 -2.885,-5.40963 -7.501,-10.34885 -4.6159,-5.17442 -8.6548,-8.93764 -8.9434,13.87686 -17.8867,23.04971 -8.6549,9.17284 -19.0408,17.40488 -5.1929,4.23362 -10.9628,4.23362 -4.6159,0 -7.5009,-2.58722 -2.885,-2.82241 -2.885,-6.82083 0,-4.70402 4.0389,-8.70243 l 3.7505,-3.76323 q 15.8673,-15.99367 23.9452,-26.34252 5.1929,-6.82083 10.3858,-16.22887 5.4815,-9.40804 14.1364,-25.63692 5.4813,-10.34885 22.7911,-10.34885 8.0779,0 11.2514,1.17601 3.1733,1.176 3.1733,3.76322 0,1.41121 -1.1539,4.46882 -1.154,3.05761 -3.1735,6.11523 -5.1929,8.46723 -5.1929,14.34726 0,3.52802 2.885,7.76163 3.1734,4.23363 9.5203,10.58406 9.2319,9.87844 13.8478,16.93448 4.9044,6.82083 4.9044,15.05287 0,9.87844 -5.7699,18.81608 -5.4814,8.70244 -15.5788,14.11207 -10.0973,5.40962 -23.0796,5.40962 z"
     id="text37"
     style="font-size:260.489px;font-family:Pacifico;-inkscape-font-specification:Pacifico;fill:#454a5e;stroke-width:2.37288"
     aria-label="Estudai Vós" /></svg>
